<?xml version="1.0" encoding="UTF-8"?>
<svg width="670px" height="20px" viewBox="0 0 670 20" version="1.1" xmlns="http://www.w3.org/2000/svg" xmlns:xlink="http://www.w3.org/1999/xlink">
    <!-- Generator: Sketch 50.2 (55047) - http://www.bohemiancoding.com/sketch -->
    <title>sprite-active</title>
    <desc>Created with Sketch.</desc>
    <defs></defs>
    <g id="sprite-active" stroke="none" stroke-width="1" fill="none" fill-rule="evenodd">
        <g transform="translate(0.000000, -1.000000)">
            <g id="icon-height-small" transform="translate(365.000000, 9.000000)" stroke="#29ABE2" stroke-width="2">
                <rect id="Rectangle" x="0" y="0" width="20" height="5"></rect>
            </g>
            <g id="icon-height-medium" transform="translate(411.200000, 7.000000)" stroke="#29ABE2" stroke-width="2">
                <rect id="Rectangle" x="0.657142857" y="0" width="20" height="8"></rect>
            </g>
            <g id="icon-height-large" transform="translate(456.400000, 6.000000)" stroke="#29ABE2" stroke-width="2">
                <rect id="Rectangle" x="2.31428571" y="0" width="20" height="10"></rect>
            </g>
            <g id="icon-height-xlarge" transform="translate(502.400000, 5.000000)" stroke="#29ABE2" stroke-width="2">
                <rect id="Rectangle" x="3.17142857" y="0" width="20" height="13"></rect>
            </g>
            <g id="icon-width-small" transform="translate(551.600000, 2.000000)" stroke="#29ABE2" stroke-width="2">
                <rect id="Rectangle" x="0.828571429" y="0" width="5" height="18"></rect>
            </g>
            <g id="icon-width-medium" transform="translate(583.600000, 2.000000)" stroke="#29ABE2" stroke-width="2">
                <rect id="Rectangle" x="0.685714286" y="0" width="8" height="18"></rect>
            </g>
            <g id="icon-width-large" transform="translate(623.000000, 2.000000)" stroke="#29ABE2" stroke-width="2">
                <rect id="Rectangle" transform="translate(1.142857, 9.000000) rotate(90.000000) translate(-1.142857, -9.000000) " x="-7.85714286" y="4" width="18" height="10"></rect>
            </g>
            <g id="icon-width-xlarge" transform="translate(656.000000, 2.000000)" stroke="#29ABE2" stroke-width="2">
                <rect id="Rectangle" x="0" y="0" width="13" height="18"></rect>
            </g>
            <g id="icon-align-bottom" transform="translate(0.000000, 2.000000)" fill="#29ABE2" fill-rule="nonzero">
                <path d="M13.6,10.2 L11.2,10.2 L11.2,0.6 L8.8,0.6 L8.8,10.2 L6.4,10.2 L10,13.8 L13.6,10.2 Z M18.88,15 L1.12,15 C0.458,15 0.4,15.536 0.4,16.2 C0.4,16.864 0.458,17.4 1.12,17.4 L18.88,17.4 C19.542,17.4 19.6,16.864 19.6,16.2 C19.6,15.536 19.542,15 18.88,15 Z" id="Shape"></path>
            </g>
            <g id="icon-align-horizontal-middle" transform="translate(39.000000, 1.000000)" fill="#29ABE2" fill-rule="nonzero">
                <path d="M8.6,10 L5,6.4 L5,8.8 L0.2,8.8 L0.2,11.2 L5,11.2 L5,13.6 L8.6,10 Z M17,13.6 L17,11.2 L21.8,11.2 L21.8,8.8 L17,8.8 L17,6.4 L13.4,10 L17,13.6 Z M11,19.6 C11.664,19.6 12.2,19.541 12.2,18.88 L12.2,1.12 C12.2,0.456 11.664,0.4 11,0.4 C10.338,0.4 9.8,0.456 9.8,1.12 L9.8,18.88 C9.8,19.541 10.338,19.6 11,19.6 Z" id="Shape"></path>
            </g>
            <g id="icon-align-left" transform="translate(81.000000, 1.000000)" fill="#29ABE2" fill-rule="nonzero">
                <path d="M4.2,10 L7.8,13.6 L7.8,11.2 L17.4,11.2 L17.4,8.8 L7.8,8.8 L7.8,6.4 L4.2,10 Z M1.8,0.4 C1.136,0.4 0.6,0.456 0.6,1.12 L0.6,18.88 C0.6,19.541 1.136,19.6 1.8,19.6 C2.462,19.6 3,19.541 3,18.88 L3,1.12 C3,0.456 2.462,0.4 1.8,0.4 Z" id="Shape"></path>
            </g>
            <g id="icon-align-right" transform="translate(121.000000, 1.000000)" fill="#29ABE2" fill-rule="nonzero">
                <path d="M10.2,6.4 L10.2,8.8 L0.6,8.8 L0.6,11.2 L10.2,11.2 L10.2,13.6 L13.8,10 L10.2,6.4 Z M15,1.12 L15,18.88 C15,19.541 15.538,19.6 16.2,19.6 C16.864,19.6 17.4,19.541 17.4,18.88 L17.4,1.12 C17.4,0.456 16.864,0.4 16.2,0.4 C15.538,0.4 15,0.456 15,1.12 Z" id="Shape"></path>
            </g>
            <g id="icon-align-top" transform="translate(160.000000, 2.000000)" fill="#29ABE2" fill-rule="nonzero">
                <path d="M10,4.2 L6.4,7.8 L8.8,7.8 L8.8,17.4 L11.2,17.4 L11.2,7.8 L13.6,7.8 L10,4.2 Z M19.6,1.8 C19.6,1.136 19.542,0.6 18.88,0.6 L1.12,0.6 C0.458,0.6 0.4,1.136 0.4,1.8 C0.4,2.464 0.458,3 1.12,3 L18.88,3 C19.542,3 19.6,2.464 19.6,1.8 Z" id="Shape"></path>
            </g>
            <g id="icon-align-vertical-middle" transform="translate(200.000000, 0.000000)" fill="#29ABE2" fill-rule="nonzero">
                <path d="M10,13.4 L6.4,17 L8.8,17 L8.8,21.8 L11.2,21.8 L11.2,17 L13.6,17 L10,13.4 Z M13.6,5 L11.2,5 L11.2,0.2 L8.8,0.2 L8.8,5 L6.4,5 L10,8.6 L13.6,5 Z M19.6,11 C19.6,10.336 19.542,9.8 18.88,9.8 L1.12,9.8 C0.458,9.8 0.4,10.336 0.4,11 C0.4,11.661 0.458,12.2 1.12,12.2 L18.88,12.2 C19.542,12.2 19.6,11.661 19.6,11 Z" id="Shape"></path>
            </g>
            <g id="icon-format_align_center" transform="translate(241.000000, 2.000000)" fill="#29ABE2" fill-rule="nonzero">
                <path d="M0,0 L18,0 L18,2.016 L0,2.016 L0,0 Z M3.984,3.984 L14.015,3.984 L14.015,6 L3.984,6 L3.984,3.984 Z M0,9.984 L0,8.015 L18,8.015 L18,9.984 L0,9.984 Z M0,18 L0,15.984 L18,15.984 L18,18 L0,18 Z M3.984,12 L14.015,12 L14.015,14.016 L3.984,14.016 L3.984,12 Z" id="Shape"></path>
            </g>
            <g id="icon-format_align_left" transform="translate(281.000000, 2.000000)" fill="#29ABE2" fill-rule="nonzero">
                <path d="M0,0 L18,0 L18,2.016 L0,2.016 L0,0 Z M0,18 L0,15.984 L18,15.984 L18,18 L0,18 Z M0,9.984 L0,8.015 L18,8.015 L18,9.984 L0,9.984 Z M12,3.984 L12,6 L0,6 L0,3.984 L12,3.984 Z M12,12 L12,14.016 L0,14.016 L0,12 L12,12 Z" id="Shape"></path>
            </g>
            <g id="icon-format_align_right" transform="translate(321.000000, 2.000000)" fill="#29ABE2" fill-rule="nonzero">
                <path d="M0,0 L18,0 L18,2.016 L0,2.016 L0,0 Z M6,6 L6,3.984 L18,3.984 L18,6 L6,6 Z M0,9.984 L0,8.015 L18,8.015 L18,9.984 L0,9.984 Z M6,14.016 L6,12 L18,12 L18,14.016 L6,14.016 Z M0,18 L0,15.984 L18,15.984 L18,18 L0,18 Z" id="Shape"></path>
            </g>
        </g>
    </g>
</svg>